<svg width="330" height="330" viewBox="0 0 330 330" fill="none" xmlns="http://www.w3.org/2000/svg">
<path d="M266.068 140.651C265.843 139.562 266.075 138.493 266.765 137.443L267.561 137.916C266.97 138.847 266.755 139.704 266.917 140.488C267.038 141.075 267.309 141.517 267.73 141.814C268.151 142.111 268.632 142.204 269.172 142.092C269.682 141.987 270.057 141.709 270.299 141.259C270.542 140.816 270.602 140.293 270.477 139.69C270.36 139.126 270.085 138.583 269.65 138.06L269.932 137.352L273.988 136.758L274.967 141.494L274.11 141.672L273.298 137.747L270.629 138.115C270.987 138.621 271.22 139.136 271.329 139.661C271.499 140.484 271.408 141.209 271.056 141.837C270.713 142.472 270.154 142.869 269.379 143.03C268.579 143.195 267.872 143.055 267.258 142.611C266.643 142.166 266.246 141.513 266.068 140.651Z" fill="#8E8F92"/>
<path d="M268.715 155.39C268.708 155.014 268.768 154.648 268.897 154.294L269.669 154.47C269.593 154.648 269.558 154.897 269.564 155.217C269.567 155.377 269.594 155.52 269.645 155.647C269.703 155.774 269.85 155.923 270.086 156.094C270.329 156.266 270.656 156.403 271.066 156.507C271.484 156.611 272.09 156.695 272.883 156.759C273.685 156.831 274.63 156.856 275.717 156.834L277.241 156.804L277.35 162.239L268.951 162.406L268.932 161.459L276.467 161.308L276.395 157.733L275.484 157.751C274.348 157.774 273.363 157.745 272.529 157.666C271.696 157.595 271.037 157.488 270.555 157.345C270.08 157.211 269.7 157.03 269.416 156.804C269.131 156.586 268.943 156.365 268.85 156.143C268.766 155.929 268.721 155.678 268.715 155.39Z" fill="#8E8F92"/>
<path d="M268.916 171.654L277.248 172.719L276.478 178.742L275.621 178.632L276.271 173.55L273.426 173.186L272.845 177.733L271.988 177.623L272.569 173.076L269.652 172.704L268.995 177.846L268.138 177.736L268.916 171.654Z" fill="#8E8F92"/>
<path d="M266.28 188.279L273.561 190.222L274.288 187.497L275.123 187.72L273.421 194.097L272.587 193.874L273.314 191.149L266.032 189.207L266.28 188.279Z" fill="#8E8F92"/>
<path d="M261.738 203.019L269.376 206.514L267.145 211.392L266.359 211.032L268.196 207.016L261.343 203.881L261.738 203.019Z" fill="#8E8F92"/>
<path d="M256.754 214.063L261.832 221.837L261.355 222.586L252.163 221.269L252.711 220.408L255.112 220.771L257.569 216.915L256.231 214.882L256.754 214.063ZM258.087 217.687L256.031 220.915L260.669 221.608L258.087 217.687Z" fill="#8E8F92"/>
<path d="M247.541 228.127L253.895 233.622L251.838 236C251.21 236.726 250.529 237.147 249.794 237.263C249.06 237.378 248.378 237.164 247.748 236.62C247.089 236.05 246.784 235.368 246.835 234.576C246.88 233.79 247.211 233.04 247.828 232.326L249.163 230.783L246.921 228.844L247.541 228.127ZM249.816 231.348L248.458 232.919C248.003 233.445 247.767 233.976 247.749 234.51C247.731 235.056 247.938 235.514 248.367 235.886C248.809 236.268 249.281 236.407 249.784 236.302C250.288 236.209 250.767 235.899 251.223 235.373L252.612 233.766L249.816 231.348Z" fill="#8E8F92"/>
<path d="M238.578 238.485L241.226 247.386L240.555 247.967L232.122 244.081L232.892 243.413L235.09 244.446L238.545 241.452L237.844 239.122L238.578 238.485ZM238.822 242.339L235.929 244.846L240.177 246.834L238.822 242.339Z" fill="#8E8F92"/>
<path d="M225.765 249.344L230.204 256.476L229.399 256.977L227.427 253.808L223.311 256.37L225.283 259.538L224.479 260.039L220.04 252.908L220.845 252.407L222.842 255.616L226.958 253.054L224.961 249.845L225.765 249.344Z" fill="#8E8F92"/>
<path d="M209.925 258.517L212.995 265.399L215.571 264.25L215.923 265.039L209.895 267.728L209.543 266.939L212.119 265.79L209.048 258.908L209.925 258.517Z" fill="#8E8F92"/>
<path d="M200.24 262.766L202.57 270.836L201.659 271.099L199.725 264.401L196.84 272.491L195.976 272.741L193.645 264.67L194.545 264.411L196.479 271.109L199.352 263.023L200.24 262.766Z" fill="#8E8F92"/>
<path d="M184.368 267.14L185.4 275.476L184.459 275.593L183.603 268.674L179.481 276.209L178.588 276.319L177.556 267.983L178.485 267.868L179.342 274.787L183.451 267.253L184.368 267.14Z" fill="#8E8F92"/>
<path d="M137.439 265.035C138.503 265.357 139.332 266.072 139.925 267.179L139.129 267.653C138.594 266.688 137.943 266.09 137.177 265.858C136.603 265.685 136.085 265.712 135.623 265.94C135.161 266.168 134.85 266.546 134.691 267.074C134.54 267.572 134.605 268.035 134.885 268.462C135.158 268.887 135.589 269.189 136.178 269.367C136.729 269.534 137.339 269.551 138.006 269.419L138.493 270.005L137.078 273.852L132.449 272.452L132.703 271.613L136.539 272.774L137.49 270.253C136.874 270.326 136.31 270.285 135.797 270.13C134.993 269.886 134.399 269.46 134.015 268.851C133.621 268.247 133.539 267.566 133.768 266.808C134.005 266.027 134.465 265.472 135.149 265.144C135.834 264.817 136.597 264.78 137.439 265.035Z" fill="#8E8F92"/>
<path d="M123.273 260.318C123.607 260.49 123.899 260.718 124.149 261L123.627 261.595C123.507 261.443 123.305 261.293 123.02 261.147C122.878 261.073 122.739 261.029 122.604 261.013C122.464 261.004 122.263 261.062 122 261.187C121.734 261.32 121.457 261.542 121.171 261.853C120.88 262.171 120.518 262.664 120.084 263.331C119.639 264.002 119.167 264.821 118.668 265.788L117.969 267.142L113.138 264.649L116.99 257.184L117.833 257.619L114.377 264.316L117.555 265.956L117.973 265.145C118.494 264.136 118.988 263.283 119.455 262.588C119.914 261.889 120.322 261.361 120.677 261.004C121.021 260.651 121.361 260.403 121.695 260.26C122.023 260.114 122.306 260.054 122.546 260.078C122.774 260.106 123.017 260.186 123.273 260.318Z" fill="#8E8F92"/>
<path d="M108.931 252.775L104.038 259.603L99.1022 256.066L99.6055 255.364L103.771 258.348L105.441 256.017L101.715 253.347L102.218 252.645L105.944 255.315L107.657 252.925L103.443 249.905L103.946 249.203L108.931 252.775Z" fill="#8E8F92"/>
<path d="M95.6465 242.653L90.4913 248.15L92.5482 250.079L91.9571 250.709L87.1431 246.194L87.7341 245.564L89.791 247.493L94.9463 241.996L95.6465 242.653Z" fill="#8E8F92"/>
<path d="M84.7938 231.672L78.0914 236.736L74.8581 232.456L75.5474 231.935L78.2094 235.458L84.2223 230.916L84.7938 231.672Z" fill="#8E8F92"/>
<path d="M77.4538 222.089L68.1997 222.855L67.7682 222.079L73.3019 214.622L73.7976 215.513L72.3355 217.452L74.5572 221.448L76.9815 221.24L77.4538 222.089ZM73.6318 221.537L71.7716 218.191L68.9547 221.941L73.6318 221.537Z" fill="#8E8F92"/>
<path d="M69.5211 207.425L61.6656 210.4L60.5521 207.46C60.2121 206.562 60.1659 205.763 60.4136 205.061C60.6613 204.36 61.1742 203.862 61.9523 203.568C62.7677 203.259 63.5118 203.315 64.1846 203.736C64.8545 204.149 65.3566 204.798 65.6909 205.68L66.4135 207.588L69.1853 206.538L69.5211 207.425ZM65.6055 207.894L64.8702 205.953C64.6237 205.302 64.2696 204.841 63.8081 204.571C63.3362 204.297 62.8347 204.26 62.3035 204.461C61.7574 204.668 61.4107 205.017 61.2634 205.51C61.1058 205.997 61.1503 206.566 61.3968 207.217L62.1491 209.203L65.6055 207.894Z" fill="#8E8F92"/>
<path d="M64.579 194.4L55.4961 192.469L55.3062 191.602L62.752 186.053L62.9701 187.05L61.0119 188.486L61.9895 192.952L64.3711 193.45L64.579 194.4ZM61.0777 192.771L60.2591 189.031L56.4822 191.811L61.0777 192.771Z" fill="#8E8F92"/>
<path d="M61.128 178.03L52.7441 178.55L52.6855 177.604L56.4103 177.373L56.1106 172.534L52.3857 172.765L52.3271 171.819L60.7111 171.299L60.7697 172.245L56.9969 172.479L57.2966 177.318L61.0694 177.084L61.128 178.03Z" fill="#8E8F92"/>
<path d="M60.5447 159.684L53.0319 159.094L52.8111 161.905L51.9497 161.838L52.4665 155.258L53.3279 155.326L53.107 158.137L60.6199 158.727L60.5447 159.684Z" fill="#8E8F92"/>
<path d="M61.4365 148.802L53.2392 146.968L53.4462 146.043L60.25 147.565L54.5414 141.148L54.7379 140.27L62.9353 142.104L62.7309 143.017L55.9271 141.495L61.6383 147.9L61.4365 148.802Z" fill="#8E8F92"/>
<path d="M64.9095 133.671L57.0802 130.628L57.4237 129.744L63.922 132.27L59.2411 125.069L59.5671 124.23L67.3964 127.274L67.0573 128.146L60.559 125.62L65.2443 132.81L64.9095 133.671Z" fill="#8E8F92"/>
<path d="M89.0823 92.981C88.2952 93.7665 87.2737 94.1585 86.0179 94.1572L85.9764 93.2322C87.0795 93.2164 87.9142 92.926 88.4805 92.3609C88.9052 91.9371 89.1264 91.4678 89.1439 90.9531C89.1614 90.4383 88.9752 89.9856 88.5853 89.5948C88.218 89.2267 87.7797 89.0651 87.2706 89.1098C86.7671 89.1488 86.2973 89.3859 85.8613 89.821C85.4535 90.2279 85.1503 90.7565 84.9517 91.4068L84.2048 91.5588L81.4843 88.4927L84.9075 85.0767L85.5262 85.6968L82.6891 88.5279L84.4604 90.5578C84.6873 89.981 84.9905 89.5033 85.3699 89.1247C85.9645 88.5314 86.621 88.2096 87.3395 88.1595C88.058 88.098 88.6969 88.3476 89.2564 88.9082C89.8327 89.4858 90.1036 90.1536 90.0688 90.9116C90.0341 91.6696 89.7052 92.3594 89.0823 92.981Z" fill="#8E8F92"/>
<path d="M100.033 82.5991C99.7226 82.8109 99.3835 82.9597 99.016 83.0456L98.7422 82.3028C98.9327 82.2698 99.1601 82.1632 99.4246 81.983C99.5568 81.8929 99.6623 81.7919 99.741 81.6802C99.8152 81.5618 99.8597 81.3572 99.8745 81.0664C99.8848 80.7689 99.8213 80.4201 99.6841 80.0199C99.5424 79.6131 99.2815 79.0599 98.9016 78.3604C98.5238 77.6497 98.0285 76.8449 97.4158 75.9458L96.5575 74.6865L101.049 71.6251L105.78 78.5663L104.997 79.1002L100.753 72.8729L97.7977 74.8868L98.3113 75.6405C98.9511 76.5792 99.4656 77.4193 99.8548 78.1609C100.251 78.898 100.521 79.5076 100.666 79.9899C100.812 80.461 100.869 80.8776 100.835 81.2396C100.807 81.5972 100.726 81.8754 100.59 82.0742C100.457 82.262 100.271 82.437 100.033 82.5991Z" fill="#8E8F92"/>
<path d="M112.924 73.8394L109.239 66.2907L114.696 63.6272L115.075 64.4037L110.47 66.6513L111.728 69.2286L115.847 67.2179L116.226 67.9943L112.107 70.0051L113.396 72.6471L118.055 70.3732L118.434 71.1496L112.924 73.8394Z" fill="#8E8F92"/>
<path d="M128.072 66.9121L125.676 59.767L123.003 60.6636L122.728 59.8444L128.986 57.7461L129.26 58.5653L126.587 59.4618L128.982 66.6069L128.072 66.9121Z" fill="#8E8F92"/>
<path d="M143.786 62.2993L142.531 53.9937L147.835 53.192L147.964 54.0463L143.597 54.7063L144.724 62.1577L143.786 62.2993Z" fill="#8E8F92"/>
<path d="M155.452 60.4077L159.175 51.9011L160.063 51.8901L163.995 60.3022L162.975 60.3148L161.964 58.1071L157.392 58.1636L156.424 60.3957L155.452 60.4077ZM157.754 57.307L161.581 57.2598L159.621 52.9997L157.754 57.307Z" fill="#8E8F92"/>
<path d="M172.196 60.3583L173.324 52.0343L176.439 52.4562C177.39 52.5851 178.115 52.9254 178.614 53.4773C179.112 54.0292 179.306 54.7174 179.194 55.5419C179.077 56.406 178.673 57.0335 177.982 57.4243C177.3 57.8162 176.491 57.9488 175.555 57.8221L173.533 57.5484L173.136 60.4855L172.196 60.3583ZM173.649 56.6922L175.707 56.9708C176.396 57.0642 176.97 56.9723 177.427 56.6952C177.894 56.4112 178.165 55.9878 178.241 55.4249C178.319 54.8462 178.177 54.3749 177.815 54.011C177.462 53.6402 176.94 53.4081 176.25 53.3147L174.145 53.0296L173.649 56.6922Z" fill="#8E8F92"/>
<path d="M186.111 62.2122L192.148 55.1566L193 55.4044L194.315 64.5966L193.336 64.3119L193.011 61.9055L188.62 60.6296L187.044 62.4835L186.111 62.2122ZM189.215 59.9153L192.891 60.9836L192.254 56.3373L189.215 59.9153Z" fill="#8E8F92"/>
<path d="M202.218 67.0308L205.768 59.4178L206.627 59.8185L205.05 63.2008L209.443 65.2498L211.021 61.8674L211.88 62.2681L208.33 69.881L207.471 69.4804L209.068 66.0545L204.674 64.0056L203.077 67.4314L202.218 67.0308Z" fill="#8E8F92"/>
<path d="M218.654 75.3028L222.749 68.9765L220.382 67.4441L220.851 66.7188L226.392 70.3052L225.922 71.0305L223.555 69.4982L219.46 75.8245L218.654 75.3028Z" fill="#8E8F92"/>
<path d="M227.144 80.7585L232.615 74.3847L233.335 75.0022L228.794 80.2924L237.141 78.2693L237.824 78.8556L232.352 85.2293L231.642 84.6197L236.183 79.3294L227.845 81.3604L227.144 80.7585Z" fill="#8E8F92"/>
<path d="M239.37 91.4235L245.758 85.9695L246.374 86.6905L241.071 91.2173L249.63 90.5054L250.215 91.1899L243.826 96.6439L243.219 95.932L248.521 91.4052L239.97 92.1262L239.37 91.4235Z" fill="#8E8F92"/>
</svg>
